<svg xmlns="http://www.w3.org/2000/svg" width="16" height="21" viewBox="0 0 16 21">
  <path fill="#E3E3E3" fill-rule="evenodd" d="M13.499999,7.33333289 L12.5833324,7.33333289 L12.5833324,5.49999967 C12.5833324,2.96999982 10.5299994,0.916666612 7.99999934,0.916666612 C5.46999928,0.916666612 3.41666628,2.96999982 3.41666628,5.49999967 L3.41666628,7.33333289 L2.49999967,7.33333289 C1.49166648,7.33333289 0.666666447,8.15833249 0.666666447,9.16666612 L0.666666447,18.3333322 C0.666666447,19.3416658 1.49166648,20.1666655 2.49999967,20.1666655 L13.499999,20.1666655 C14.5083326,20.1666655 15.3333322,19.3416658 15.3333322,18.3333322 L15.3333322,9.16666612 C15.3333322,8.15833249 14.5083326,7.33333289 13.499999,7.33333289 Z M7.99999934,15.5833324 C6.9916657,15.5833324 6.16666612,14.7583327 6.16666612,13.7499992 C6.16666612,12.7416655 6.9916657,11.916666 7.99999934,11.916666 C9.00833289,11.916666 9.83333256,12.7416655 9.83333256,13.7499992 C9.83333256,14.7583327 9.00833289,15.5833324 7.99999934,15.5833324 Z M10.8416661,7.33333289 L5.15833249,7.33333289 L5.15833249,5.49999967 C5.15833249,3.93249973 6.43249934,2.65833326 7.99999934,2.65833326 C9.56749925,2.65833326 10.8416661,3.93249973 10.8416661,5.49999967 L10.8416661,7.33333289 Z"/>
</svg>
